<?xml version="1.0" encoding="UTF-8" standalone="no"?>
<svg
   xmlns:dc="http://purl.org/dc/elements/1.1/"
   xmlns:cc="http://creativecommons.org/ns#"
   xmlns:rdf="http://www.w3.org/1999/02/22-rdf-syntax-ns#"
   xmlns:svg="http://www.w3.org/2000/svg"
   xmlns="http://www.w3.org/2000/svg"
   xmlns:sodipodi="http://sodipodi.sourceforge.net/DTD/sodipodi-0.dtd"
   xmlns:inkscape="http://www.inkscape.org/namespaces/inkscape"
   version="1.0"
   width="1320.3899"
   height="1594.0275"
   viewBox="0 0 13203.899 15940.275"
   preserveAspectRatio="xMidYMid meet"
   id="svg15"
   sodipodi:docname="android-sdk.svg"
   inkscape:version="0.92.1 r">
  <metadata
     id="metadata21">
    <rdf:RDF>
      <cc:Work
         rdf:about="">
        <dc:format>image/svg+xml</dc:format>
        <dc:type
           rdf:resource="http://purl.org/dc/dcmitype/StillImage" />
        <dc:title />
      </cc:Work>
    </rdf:RDF>
  </metadata>
  <defs
     id="defs19" />
  <sodipodi:namedview
     pagecolor="#ffffff"
     bordercolor="#666666"
     borderopacity="1"
     objecttolerance="10"
     gridtolerance="10"
     guidetolerance="10"
     inkscape:pageopacity="0"
     inkscape:pageshadow="2"
     inkscape:window-width="2560"
     inkscape:window-height="1385"
     id="namedview17"
     showgrid="false"
     fit-margin-top="0"
     fit-margin-left="0"
     fit-margin-right="0"
     fit-margin-bottom="0"
     inkscape:zoom="0.14805521"
     inkscape:cx="-735.33507"
     inkscape:cy="796.98978"
     inkscape:window-x="-4"
     inkscape:window-y="-3"
     inkscape:window-maximized="1"
     inkscape:current-layer="svg15" />
  <g
     id="g4141"
     inkscape:export-xdpi="0.90337211"
     inkscape:export-ydpi="0.90337211">
    <path
       transform="translate(-1405.851,0.37728591)"
       d="m 6141,15924 c -82,-18 -235,-90 -315,-149 -129,-95 -268,-262 -312,-376 -9,-24 -20,-48 -24,-54 -13,-18 -49,-138 -59,-199 -7,-40 -11,-448 -11,-1202 v -1143 l -492,-3 c -441,-3 -501,-5 -568,-22 -99,-24 -194,-63 -252,-103 -26,-18 -52,-33 -57,-33 -32,0 -291,-268 -291,-301 0,-5 -14,-30 -30,-56 -48,-75 -86,-189 -99,-293 -9,-69 -12,-329 -9,-955 l 3,-860 1492,-3 1493,-2 19,37 c 22,44 76,129 123,193 81,110 271,286 361,335 23,13 79,43 125,69 45,25 86,46 90,46 5,0 56,16 115,35 219,71 182,68 1194,72 l 913,4 2,-393 3,-393 h 1410 1410 l 3,860 c 4,920 1,992 -44,1114 -34,91 -99,206 -161,282 -54,67 -206,209 -224,209 -5,0 -31,15 -57,33 -58,40 -153,79 -252,103 -67,17 -127,19 -567,22 l -493,3 v 1143 c 0,754 -4,1162 -11,1202 -10,61 -46,181 -59,199 -4,6 -15,30 -24,54 -44,114 -183,281 -312,376 -84,61 -234,131 -323,150 -93,19 -387,20 -486,2 -93,-18 -243,-88 -330,-153 -179,-135 -291,-287 -358,-484 l -42,-125 -3,-1182 -3,-1183 h -629 -629 l -3,1183 -3,1182 -42,125 c -67,197 -179,349 -358,484 -87,65 -237,135 -330,153 -93,17 -408,16 -494,-3 z m -374,-4224 c 121,-179 161,-386 117,-609 -17,-86 -76,-224 -108,-250 -9,-8 -16,-18 -16,-24 0,-6 -7,-19 -17,-29 -15,-17 -47,-18 -594,-18 h -578 l -45,59 c -25,33 -46,64 -46,71 0,6 -12,33 -26,61 -61,120 -82,317 -49,457 36,150 134,323 227,400 l 28,24 v -225 -224 l 51,-32 c 28,-17 54,-31 59,-31 4,0 51,-27 103,-60 53,-33 100,-60 105,-60 5,0 40,-20 78,-45 66,-43 107,-55 118,-36 6,9 78,52 176,103 30,16 62,35 70,42 8,8 51,32 95,56 125,66 115,39 115,296 v 222 l 53,-51 c 29,-29 67,-72 84,-97 z m 5713,-342 c 0,-29 -7,-154 -15,-278 -8,-124 -15,-244 -15,-267 v -43 h -395 -395 v 43 c 0,23 -7,143 -15,267 -8,124 -15,249 -15,278 v 52 h 425 425 z"
       id="path2"
       inkscape:connector-curvature="0"
       style="fill:#a4c639;stroke:none" />
    <path
       transform="translate(-1405.851,0.37728591)"
       d="m 13451,11275 c -149,-33 -220,-62 -341,-141 -125,-81 -239,-200 -311,-324 -70,-120 -85,-158 -109,-282 -20,-97 -20,-153 -20,-2268 0,-2138 0,-2170 20,-2272 53,-268 236,-506 501,-652 36,-20 75,-36 85,-36 11,0 24,-4 30,-9 5,-5 43,-19 84,-31 92,-26 293,-37 395,-22 68,11 218,56 280,83 57,26 190,122 254,183 62,60 161,181 161,197 0,4 13,30 28,56 44,74 81,181 92,263 13,106 13,4369 0,4479 -11,86 -52,203 -95,271 -14,22 -25,44 -25,48 0,18 -99,139 -166,203 -71,68 -200,158 -263,185 -59,25 -182,62 -245,73 -82,15 -277,12 -355,-4 z"
       id="path4"
       inkscape:connector-curvature="0"
       style="fill:#a4c639;stroke:none" />
    <path
       transform="translate(-1405.851,0.37728591)"
       d="m 7715,10614 c -11,-2 -45,-9 -75,-15 -85,-17 -258,-88 -325,-133 -126,-84 -142,-96 -201,-158 -122,-126 -201,-258 -259,-431 -61,-183 -61,-431 1,-615 38,-115 107,-253 148,-297 20,-22 36,-44 36,-49 0,-22 156,-165 245,-224 93,-61 167,-95 325,-145 64,-21 81,-21 825,-22 h 760 v 1045 1045 h -240 -240 l -3,-803 -2,-804 -468,5 c -516,4 -502,3 -644,74 -46,24 -178,133 -178,148 0,2 -15,30 -34,62 -106,181 -105,369 4,553 52,86 129,161 213,204 126,65 151,69 477,75 l 295,6 v 240 240 l -320,1 c -176,1 -329,0 -340,-2 z"
       id="path6"
       inkscape:connector-curvature="0"
       style="fill:#a4c639;stroke:none" />
    <path
       transform="translate(-1405.851,0.37728591)"
       d="m 3625,9008 c -3,-7 -4,-805 -3,-1773 l 3,-1760 h 4375 4375 v 1770 1770 h -510 -510 l -29,-512 -30,-513 h -241 -241 l -30,513 -29,512 h -600 -600 l -3,-423 -2,-423 -913,4 c -1000,4 -978,2 -1175,66 -48,15 -100,31 -115,35 -15,4 -65,27 -110,52 -45,26 -101,57 -124,69 -84,46 -238,184 -332,300 -64,78 -97,130 -157,243 l -41,77 h -529 -529 l -3,-299 c -2,-219 1,-302 10,-313 6,-8 25,-20 42,-27 35,-15 186,-162 186,-181 0,-7 7,-18 16,-26 32,-26 91,-164 108,-250 53,-271 -21,-531 -201,-706 l -53,-51 v 233 234 l -26,20 c -14,11 -35,23 -47,27 -21,7 -40,18 -154,91 -28,18 -56,33 -62,33 -6,0 -49,25 -96,55 -46,30 -93,55 -103,55 -9,0 -40,-15 -67,-33 -28,-19 -86,-53 -130,-77 -44,-24 -93,-52 -110,-64 -16,-11 -61,-37 -100,-57 l -70,-37 -5,-235 -5,-235 -25,21 c -95,82 -190,250 -225,399 -33,140 -12,337 49,457 14,28 26,55 26,61 0,19 117,165 167,210 26,23 65,51 86,61 l 37,20 -2,307 -3,307 -568,3 c -449,2 -569,0 -572,-10 z m 8575,-1045 c 0,-380 -11,-468 -82,-645 -50,-127 -173,-246 -322,-312 -94,-42 -170,-46 -831,-46 h -625 v 370 370 h 685 c 741,0 725,-1 783,53 49,45 52,63 52,282 v 205 h 170 170 z m -2070,-628 v -625 h -270 -270 v 625 625 h 270 270 z"
       id="path8"
       inkscape:connector-curvature="0"
       style="fill:#a4c639;stroke:none" />
    <path
       transform="translate(-1405.851,0.37728591)"
       d="m 3634,5157 c -2,-7 0,-78 5,-158 11,-156 43,-345 91,-534 16,-66 30,-129 30,-140 1,-11 23,-85 50,-165 28,-80 55,-163 61,-185 27,-102 214,-507 313,-675 130,-222 212,-345 331,-498 33,-42 67,-87 75,-98 77,-110 366,-407 555,-570 83,-72 290,-233 320,-248 11,-6 37,-24 57,-41 42,-33 232,-154 295,-186 l 41,-22 -49,-79 c -27,-44 -49,-83 -49,-88 0,-4 -27,-51 -60,-103 -33,-53 -60,-100 -60,-105 0,-5 -19,-38 -41,-73 -23,-35 -60,-97 -82,-138 -22,-41 -57,-102 -78,-134 -22,-33 -39,-64 -39,-68 0,-5 -16,-34 -36,-64 -19,-31 -50,-84 -68,-118 -19,-34 -55,-99 -82,-144 -27,-44 -62,-105 -79,-134 -16,-29 -47,-82 -67,-118 -30,-52 -38,-77 -38,-117 0,-67 22,-120 60,-139 40,-21 168,-20 198,0 22,16 105,138 126,185 6,14 36,68 66,120 31,52 62,107 70,121 8,15 35,61 60,104 25,42 71,122 104,178 32,56 85,146 117,200 33,54 59,103 59,109 0,6 6,19 13,27 22,26 107,168 107,178 0,5 17,36 39,69 21,32 51,83 66,112 15,30 34,56 40,59 7,2 45,-12 84,-31 39,-20 77,-36 84,-36 13,0 36,-9 152,-60 22,-10 72,-27 110,-39 39,-11 126,-38 195,-59 192,-60 400,-102 705,-145 130,-18 199,-21 515,-21 316,0 385,3 515,21 305,43 513,85 705,145 69,21 157,48 195,59 39,12 88,29 110,39 116,51 139,60 152,60 7,0 45,16 84,36 39,19 77,33 84,31 6,-3 27,-34 45,-68 18,-35 48,-86 66,-112 19,-27 34,-54 34,-59 0,-11 84,-152 107,-179 7,-8 13,-20 13,-26 0,-6 28,-58 63,-116 34,-58 86,-147 116,-199 29,-51 76,-131 103,-178 28,-47 59,-101 69,-121 10,-20 40,-71 66,-115 27,-43 53,-90 59,-104 21,-48 104,-169 126,-185 30,-20 158,-21 198,0 38,19 60,72 60,139 0,40 -8,65 -38,117 -20,36 -50,89 -67,118 -16,29 -52,90 -79,134 -27,45 -58,100 -69,122 -11,22 -42,75 -68,118 -27,43 -49,82 -49,86 0,4 -17,35 -39,68 -21,32 -56,93 -78,134 -22,41 -59,103 -82,138 -22,35 -41,68 -41,73 0,4 -25,48 -55,97 -30,49 -58,97 -62,107 -4,10 -28,53 -54,95 l -47,76 41,22 c 63,32 253,153 295,186 20,17 46,35 57,41 30,15 237,176 320,248 189,163 478,460 555,570 8,11 42,56 75,98 119,153 201,276 331,498 99,167 286,572 313,675 6,22 33,108 60,190 92,280 167,660 173,875 l 3,125 -4363,3 c -3582,2 -4364,0 -4368,-11 z m 2504,-1669 c 161,-68 236,-205 209,-381 -11,-75 -26,-105 -80,-164 -81,-88 -177,-119 -313,-103 -109,13 -217,108 -259,229 -18,51 -19,151 -2,201 51,153 208,259 357,242 25,-3 65,-13 88,-24 z m 3947,8 c 142,-52 238,-186 236,-331 -1,-154 -131,-308 -275,-325 -75,-9 -172,2 -215,25 -45,23 -116,89 -143,134 -32,50 -46,148 -35,235 25,195 247,329 432,262 z"
       id="path12"
       inkscape:connector-curvature="0"
       style="fill:#a4c639;stroke:none" />
    <path
       d="m 13451,11275 c -149,-33 -220,-62 -341,-141 -125,-81 -239,-200 -311,-324 -70,-120 -85,-158 -109,-282 -20,-97 -20,-153 -20,-2268 0,-2138 0,-2170 20,-2272 53,-268 236,-506 501,-652 36,-20 75,-36 85,-36 11,0 24,-4 30,-9 5,-5 43,-19 84,-31 92,-26 293,-37 395,-22 68,11 218,56 280,83 57,26 190,122 254,183 62,60 161,181 161,197 0,4 13,30 28,56 44,74 81,181 92,263 13,106 13,4369 0,4479 -11,86 -52,203 -95,271 -14,22 -25,44 -25,48 0,18 -99,139 -166,203 -71,68 -200,158 -263,185 -59,25 -182,62 -245,73 -82,15 -277,12 -355,-4 z"
       id="path4-1"
       inkscape:connector-curvature="0"
       style="fill:#a4c639;stroke:none"
       transform="translate(-12670,0.37731823)" />
  </g>
</svg>
